<svg width="123" height="119" viewBox="0 0 123 119" fill="none" xmlns="http://www.w3.org/2000/svg">
<g filter="url(#filter0_dd_62_25)">
<ellipse cx="61.5" cy="49.5001" rx="46.5" ry="44.4999" fill="#9BABCE"/>
</g>
<path d="M43.7853 39.2212C40.7283 42.3229 39.0717 46.1169 39.0706 50.0194C39.0648 53.0097 40.0354 55.9525 41.8921 58.5741L39.1717 65.5054C39.0503 65.8141 39.0395 66.1425 39.1405 66.4556C39.2415 66.7686 39.4504 67.0545 39.7449 67.2827C40.0395 67.5109 40.4085 67.6727 40.8126 67.751C41.2167 67.8292 41.6407 67.8208 42.0391 67.7268L50.9724 65.6193C55.386 67.5003 60.4752 68.2055 65.4567 67.6263C70.4383 67.0472 75.0362 65.2159 78.5427 62.4141C82.0493 59.6124 84.2701 55.9956 84.8635 52.1203C85.4569 48.245 84.3899 44.326 81.8268 40.9665C79.2637 37.6069 75.3465 34.9931 70.678 33.5271C66.0096 32.0612 60.8487 31.8244 55.9895 32.8533C51.1304 33.8821 46.8423 36.1195 43.7853 39.2212Z" fill="white"/>
<defs>
<filter id="filter0_dd_62_25" x="0" y="0.00012207" width="123" height="119" filterUnits="userSpaceOnUse" color-interpolation-filters="sRGB">
<feFlood flood-opacity="0" result="BackgroundImageFix"/>
<feColorMatrix in="SourceAlpha" type="matrix" values="0 0 0 0 0 0 0 0 0 0 0 0 0 0 0 0 0 0 127 0" result="hardAlpha"/>
<feOffset dy="4"/>
<feGaussianBlur stdDeviation="3"/>
<feColorMatrix type="matrix" values="0 0 0 0 0 0 0 0 0 0 0 0 0 0 0 0 0 0 0.05 0"/>
<feBlend mode="normal" in2="BackgroundImageFix" result="effect1_dropShadow_62_25"/>
<feColorMatrix in="SourceAlpha" type="matrix" values="0 0 0 0 0 0 0 0 0 0 0 0 0 0 0 0 0 0 127 0" result="hardAlpha"/>
<feOffset dy="10"/>
<feGaussianBlur stdDeviation="7.5"/>
<feColorMatrix type="matrix" values="0 0 0 0 0 0 0 0 0 0 0 0 0 0 0 0 0 0 0.1 0"/>
<feBlend mode="normal" in2="effect1_dropShadow_62_25" result="effect2_dropShadow_62_25"/>
<feBlend mode="normal" in="SourceGraphic" in2="effect2_dropShadow_62_25" result="shape"/>
</filter>
</defs>
</svg>
