<svg width="28" height="28" viewBox="0 0 28 28" fill="none" xmlns="http://www.w3.org/2000/svg">
<g clip-path="url(#clip0_133_87)">
<path fill-rule="evenodd" clip-rule="evenodd" d="M15.2367 18.7367C14.9085 19.0644 14.4638 19.2485 14 19.2485C13.5362 19.2485 13.0915 19.0644 12.7633 18.7367L6.16233 12.138C5.83419 11.8097 5.64991 11.3645 5.65002 10.9004C5.65013 10.4362 5.83462 9.99109 6.16292 9.66295C6.49121 9.33481 6.93641 9.15053 7.40058 9.15063C7.86475 9.15074 8.30986 9.33524 8.638 9.66353L14 15.0255L19.362 9.66353C19.6919 9.3446 20.1339 9.168 20.5927 9.17177C21.0516 9.17554 21.4906 9.35937 21.8152 9.68369C22.1398 10.008 22.3241 10.4468 22.3283 10.9057C22.3325 11.3645 22.1563 11.8067 21.8377 12.1369L15.2378 18.7379L15.2367 18.7367Z" fill="white"/>
</g>
<defs>
<clipPath id="clip0_133_87">
<rect width="28" height="28" fill="white"/>
</clipPath>
</defs>
</svg>
