<svg width="46" height="46" viewBox="0 0 46 46" fill="none" xmlns="http://www.w3.org/2000/svg">
<path d="M22.9999 3.83331C25.5169 3.83331 28.0093 4.32907 30.3347 5.29229C32.6601 6.2555 34.773 7.66731 36.5528 9.4471C38.3326 11.2269 39.7444 13.3398 40.7076 15.6652C41.6708 17.9906 42.1666 20.483 42.1666 23C42.1666 28.0833 40.1472 32.9584 36.5528 36.5529C32.9584 40.1473 28.0832 42.1666 22.9999 42.1666C20.4829 42.1666 17.9906 41.6709 15.6652 40.7077C13.3397 39.7445 11.2268 38.3326 9.44704 36.5529C5.85259 32.9584 3.83325 28.0833 3.83325 23C3.83325 17.9167 5.85259 13.0415 9.44704 9.4471C13.0415 5.85265 17.9166 3.83331 22.9999 3.83331ZM15.3333 14.7775V21.1791L29.0183 23L15.3333 24.8208V31.2225L34.4999 23L15.3333 14.7775Z" fill="#9BABCE"/>
</svg>
