<svg width="32" height="32" viewBox="0 0 32 32" fill="none" xmlns="http://www.w3.org/2000/svg">
<path d="M16 4C14.5333 4 13.3333 5.2 13.3333 6.66667C13.3333 8.13333 14.5333 9.33333 16 9.33333C17.4667 9.33333 18.6667 8.13333 18.6667 6.66667C18.6667 5.2 17.4667 4 16 4ZM16 22.6667C14.5333 22.6667 13.3333 23.8667 13.3333 25.3333C13.3333 26.8 14.5333 28 16 28C17.4667 28 18.6667 26.8 18.6667 25.3333C18.6667 23.8667 17.4667 22.6667 16 22.6667ZM16 13.3333C14.5333 13.3333 13.3333 14.5333 13.3333 16C13.3333 17.4667 14.5333 18.6667 16 18.6667C17.4667 18.6667 18.6667 17.4667 18.6667 16C18.6667 14.5333 17.4667 13.3333 16 13.3333Z" fill="white"/>
</svg>
