<svg width="46" height="46" viewBox="0 0 46 46" fill="none" xmlns="http://www.w3.org/2000/svg">
<path d="M23 3.83325C25.517 3.83325 28.0094 4.32901 30.3348 5.29223C32.6602 6.25544 34.7731 7.66725 36.5529 9.44704C38.3327 11.2268 39.7445 13.3397 40.7077 15.6652C41.6709 17.9906 42.1667 20.4829 42.1667 22.9999C42.1667 28.0832 40.1473 32.9584 36.5529 36.5528C32.9584 40.1472 28.0833 42.1666 23 42.1666C20.483 42.1666 17.9906 41.6708 15.6652 40.7076C13.3398 39.7444 11.2269 38.3326 9.44712 36.5528C5.85267 32.9584 3.83333 28.0832 3.83333 22.9999C3.83333 17.9166 5.85267 13.0415 9.44712 9.44704C13.0416 5.85259 17.9167 3.83325 23 3.83325ZM15.3333 14.7774V21.1791L29.0183 22.9999L15.3333 24.8208V31.2224L34.5 22.9999L15.3333 14.7774Z" fill="#496989"/>
</svg>
